<?xml version="1.0" encoding="utf-8"?>
<svg viewBox="0 0 512 512" width="512" height="512" xmlns="http://www.w3.org/2000/svg">
  <title>Antinna Icon</title>
  <path d="M 267.19 85.48 L 267.19 249.31 L 146.65 167.4 L 267.19 85.48 Z" fill="#3aa9e2"/>
  <path d="M 267.19 249.31 L 267.19 85.48 L 387.59 167.34 L 267.19 249.31 Z" fill="#2d99d4"/>
  <path d="M 508.04 249.31 L 508.04 249.31 L 387.59 331.27 L 387.59 167.4 L 508.04 249.31 Z" fill="#535b77"/>
  <path d="M 146.65 167.4 L 26.19 249.31 L 146.65 331.21 L 146.65 167.4 Z" fill="#5f69a2"/>
  <path d="M 267.19 249.31 L 267.19 412.58 L 387.59 331.27 L 267.19 249.31 Z" fill="#de4632"/>
  <path d="M 267.19 249.31 L 267.19 412.58 L 146.65 331.27 L 267.19 249.31 Z" fill="#ed6e2f"/>
  <path d="M 508.04 249.31 L 508.04 406.21 C 508.04 419.85 505.44 431.91 500.21 442.37 C 490.73 461.38 472.95 477.14 452.05 484.81 C 434.58 491.25 415.74 491.73 395.53 486.24 C 389.05 484.49 376.76 477.85 358.67 466.34 C 328.22 446.97 267.19 412.58 267.19 412.58 L 508.04 249.31 Z" fill="#f09d30"/>
  <path d="M 26.19 391.46 C 26.19 343.75 26.19 249.31 26.19 249.31 L 267.19 412.58 C 267.19 412.58 171.17 468.76 152.73 479.57 C 140.03 487.04 125.22 490.52 108.32 490.02 C 94.6 489.61 80.55 485.3 66.17 477.08 C 47.38 466.38 34.98 449.99 28.97 428.02 C 25.84 416.65 26.24 403.65 26.19 391.46 L 26.19 391.46 Z" fill="#de4632"/>
  <path d="M 507.65 106.59 C 507.86 154.58 508.04 249.31 508.04 249.31 L 267.19 85.48 C 267.19 85.48 363.81 29.22 382.05 18.28 C 394.62 10.75 409.28 7.2 426.03 7.65 C 439.63 8.02 453.56 12.32 467.84 20.54 C 486.49 31.26 498.81 47.68 504.83 69.78 C 507.97 81.21 507.61 94.3 507.65 106.59 L 507.65 106.59 Z" fill="#5f69a2"/>
  <path d="M 26.19 249.31 L 26.6 92.01 C 26.6 78.31 29.2 66.2 34.42 55.69 C 43.9 36.58 61.68 20.76 82.58 13.04 C 100.06 6.56 118.9 6.07 139.11 11.58 C 145.59 13.34 157.88 20 175.97 31.56 C 206.42 51.01 267.19 85.48 267.19 85.48 L 26.19 249.31 Z" fill="#269a74"/>
</svg>
