<?xml version="1.0"?>
<svg width="500" height="500" xmlns="http://www.w3.org/2000/svg" xmlns:svg="http://www.w3.org/2000/svg">
  <!-- Blue triangle part -->
  <path d="M249.04,85.48 L249.04,249.31 L128.5,167.4 L249.04,85.48 Z" fill="#3aa9e2"/>
  <!-- Light blue triangle part -->
  <path d="M249.04,249.31 L249.04,85.48 L369.44,167.34 L249.04,249.31 Z" fill="#2d99d4"/>
  <!-- Dark gray triangle part -->
  <path d="M369.44,167.34 L489.89,249.31 L369.44,332.27 L369.44,167.34 Z" fill="#535b77"/>
  <!-- Dark blue triangle part -->
  <path d="M128.5,167.4 L128.5,331.31 L8.04,249.21 L128.5,167.4 Z" fill="#5f69a2"/>
  <!-- Red part -->
  <path d="M249.04,249.31 L249.04,412.58 L369.44,331.31 L249.04,249.31 Z" fill="#de4632"/>
  <!-- Orange part -->
  <path d="M249.04,249.31 L249.04,412.58 L128.5,331.31 L249.04,249.31 Z" fill="#ed6e2f"/>
  <!-- Yellow part with shadow -->
  <path d="M489.89,249.31 L489.89,406.21 C489.89,419.85 487.29,431.91 482.06,442.37 C472.58,461.38 454.8,477.14 433.9,484.81 C416.43,491.25 397.59,491.73 377.38,486.24 C370.9,484.49 358.61,477.85 340.52,466.34 C310.07,446.97 249.04,412.58 249.04,412.58 L489.89,249.31 Z" fill="#f09d30"/>
  <!-- Red part with shadow -->
  <path d="M8.04,391.46 C8.04,343.75 8.04,249.31 8.04,249.31 L249.04,412.58 C249.04,412.58 153.02,468.76 134.58,479.57 C121.88,487.04 107.07,490.52 90.17,490.02 C76.45,489.61 62.4,485.3 48.02,477.08 C29.23,466.38 16.83,449.99 10.82,428.02 C7.69,416.65 8.09,403.65 8.04,391.46 Z" fill="#de4632"/>
  <!-- Dark blue triangle part (corrected) -->
  <path d="M489.5,106.59 C489.71,154.58 489.89,249.31 489.89,249.31 L249.04,85.48 C249.04,85.48 345.66,29.22 363.9,18.28 C376.47,10.75 391.13,7.2 407.88,7.65 C421.48,8.02 435.41,12.32 449.69,20.54 C468.34,31.26 480.66,47.68 486.68,69.78 C489.82,81.21 489.46,94.3 489.5,106.59 Z" fill="#5f69a2"/>
  <!-- Green part where we need to work as its points are not touching and are not fine -->
  <path d="M8.45,249.21 L8.45,143.66 C8.45,130.02 11.05,117.96 16.27,107.49 C25.75,88.46 43.53,72.7 64.43,65.02 C81.91,58.57 100.75,58.08 120.96,63.57 C127.44,65.32 139.73,71.96 157.82,83.47 C188.27,102.84 249.3,137.23 249.3,137.23 L8.45,300.94 Z" fill="#269a74"/>
</svg>
