<svg width="500" height="500" xmlns="http://www.w3.org/2000/svg">
  <g>
    <title>Antinna Logo</title>
    <path id="svg_1" fill="#de4632" d="M0,380 C0,335 0,250 0,250 L250,400 C250,400 160,450 140,460 C126,466 110,470 90,470 C75,470 60,465 45,458 C25,448 10,433 3,413 C0,403 0,390 0,380 Z"/>
    <path id="svg_2" fill="#5f69a2" d="M500,120 C500,165 500,250 500,250 L250,100 C250,100 360,50 378,40 C390,33 405,30 420,30 C435,30 450,35 460,40 C480,50 490,65 497,85 C500,95 500,110 500,120 Z"/>
    <path id="svg_3" fill="#269a74" d="M0,250 L0,105 C0,93 3,82 9,72 C20,55 40,40 63,33 C83,28 105,28 125,32 C135,34 147,40 167,50 C200,68 250,100 250,100 L0,250 Z"/>
    <path id="svg_4" fill="#f09d30" d="M500,250 L500,396 C500,408 497,419 491,429 C480,446 460,461 437,468 C417,473 395,473 375,469 C365,467 353,461 333,451 C300,433 250,400 250,400 L500,250 Z"/>
  </g>
</svg>
